<?xml version="1.0" encoding="UTF-8"?>
<!-- Created with Inkscape (http://www.inkscape.org/) -->
<svg width="512" height="512" version="1.1" viewBox="0 0 512 512" xmlns="http://www.w3.org/2000/svg" xmlns:xlink="http://www.w3.org/1999/xlink">
 <defs>
  <linearGradient id="linearGradient60" x1="9.1549" x2="369.22" y1="181.21" y2="364.85" gradientUnits="userSpaceOnUse">
   <stop stop-color="#b5e0ce" offset="0"/>
   <stop stop-color="#1039e0" offset=".32258"/>
   <stop stop-color="#e032ce" offset=".67744"/>
   <stop stop-color="#6d31e0" offset="1"/>
  </linearGradient>
  <filter id="filter63-7" x="-.17946" y="-.16444" width="1.3589" height="1.3283" color-interpolation-filters="sRGB">
   <feGaussianBlur stdDeviation="1.3791492"/>
  </filter>
 </defs>
 <g transform="rotate(11.779 260.23 255.97)"></g>
 <g transform="matrix(1.5083 0 0 1.5083 -138.58 -94.109)">
  <g>
   <rect transform="rotate(11.779 260.23 255.97)" x="105.14" y="130.5" width="239.37" height="215.51" ry="107.75" fill="#fffee5" fill-opacity=".70028" stroke="url(#linearGradient60)" stroke-width="15"/>
   <rect transform="matrix(.73626 .6767 -.69343 .72053 57.732 -47.731)" x="170.57" y="60.407" width="130.76" height="25.352" ry="10.203" fill-opacity=".80238" stroke="#000" stroke-width="5.898"/>
   <rect transform="matrix(-.99842 .056194 .056194 .99842 57.732 -47.731)" x="-289.59" y="263.16" width="110.2" height="21.619" ry="8.7003" fill-opacity=".8" stroke="#000" stroke-width="5"/>
  </g>
  <g transform="rotate(11.779 335.4 -95.215)" fill="#fff" stroke="#000">
   <path d="m431.41 229.19-105.99 142.56v22.985l22.242-10.115 100.41-142.45z" stroke-width="3.6889"/>
   <path d="m325.41 371.75s10.775-1.5911 15.076 1.0303c3.9392 2.4009 7.1664 11.84 7.1664 11.84" fill-opacity=".54782" stroke-width="3.9"/>
  </g>
  <g>
   <path transform="rotate(11.779 260.23 255.97)" d="m347.17 156.83s23.633 7.4778 31.591 14.138c5.5876 4.6761 8.814 11.627 13.701 17.031 4.9263 5.4467 19.79 5.7104 23.518-1.1971 4.2574-7.887 1.5975-13.703-2.188-18.715-6.0241-7.9759-16.866-9.4671-27.695-11.495-11.06-2.0714-38.928 0.2387-38.928 0.2387z" fill="#5f78ed" stroke="#4061f6"/>
   <path transform="rotate(11.779 260.23 255.97)" d="m335.85 134.9s13.442-2.2759 19.008-1.0156c3.9084 0.88486 7.2327 3.4759 10.981 4.8926 3.7783 1.428 11.117-2.1756 11.207-6.4918 0.10254-4.9283-2.6596-7.1064-5.7705-8.6082-4.9506-2.3899-10.63-0.3968-16.438 1.3302-5.932 1.7639-18.988 9.8927-18.988 9.8927z" fill="#5f78ed" stroke="#4061f6" stroke-width=".54999"/>
   <path transform="rotate(11.779 260.23 255.97)" d="m204.94 283.74s-3.0672 17.125 16.837 17.859c21.039 0.77564 17.144-18.12 17.144-18.12" fill="none" stroke="#000" stroke-width="5"/>
  </g>
  <g transform="translate(.52729 -.10138)">
   <ellipse transform="matrix(.89206 .45191 -.38939 .92107 145.01 -25.759)" cx="226.68" cy="190.46" rx="15.417" ry="19.365"/>
   <path transform="rotate(11.779 268.12 277.71)" d="m266.52 250.54c0.078 0.72045-0.93265 0.46064-1.1974 0.12971-0.71755-0.89681 0.0423-2.1288 0.93801-2.5246 1.6023-0.70801 3.3445 0.45969 3.8517 2.0057 0.74436 2.2689-0.87731 4.5812-3.0734 5.1789-2.9271 0.79669-5.8258-1.2943-6.506-4.1412-0.85603-3.5825 1.7108-7.0744 5.2089-7.8332 4.2367-0.91904 8.3252 2.127 9.1603 6.2766 0.98419 4.8902-2.543 9.5774-7.3443 10.487-5.5434 1.0507-10.831-2.9588-11.815-8.4121-1.1181-6.1963 3.3746-12.084 9.4798-13.142 6.8491-1.1862 13.339 3.7903 14.469 10.548 1.2547 7.5018-4.2059 14.593-11.615 15.796" fill="#fff" fill-rule="evenodd" filter="url(#filter63-7)" opacity=".25388" stroke="#0046ff" stroke-width="2.1"/>
  </g>
  <g transform="translate(-88.058 -28.399)">
   <ellipse transform="matrix(.89206 .45191 -.38939 .92107 145.01 -25.759)" cx="226.68" cy="190.46" rx="15.417" ry="19.365"/>
   <path transform="rotate(11.779 268.12 277.71)" d="m266.52 250.54c0.078 0.72045-0.93265 0.46064-1.1974 0.12971-0.71755-0.89681 0.0423-2.1288 0.93801-2.5246 1.6023-0.70801 3.3445 0.45969 3.8517 2.0057 0.74436 2.2689-0.87731 4.5812-3.0734 5.1789-2.9271 0.79669-5.8258-1.2943-6.506-4.1412-0.85603-3.5825 1.7108-7.0744 5.2089-7.8332 4.2367-0.91904 8.3252 2.127 9.1603 6.2766 0.98419 4.8902-2.543 9.5774-7.3443 10.487-5.5434 1.0507-10.831-2.9588-11.815-8.4121-1.1181-6.1963 3.3746-12.084 9.4798-13.142 6.8491-1.1862 13.339 3.7903 14.469 10.548 1.2547 7.5018-4.2059 14.593-11.615 15.796" fill="#fff" fill-rule="evenodd" filter="url(#filter63-7)" opacity=".25388" stroke="#0046ff" stroke-width="2.1"/>
  </g>
 </g>
</svg>
